<?xml version="1.0" encoding="UTF-8" standalone="no"?>
<!DOCTYPE svg PUBLIC "-//W3C//DTD SVG 1.1//EN" "http://www.w3.org/Graphics/SVG/1.1/DTD/svg11.dtd">
<!-- Created with Vectornator (http://vectornator.io/) -->
<svg height="100%" stroke-miterlimit="10" style="fill-rule:nonzero;clip-rule:evenodd;stroke-linecap:round;stroke-linejoin:round;" version="1.1" viewBox="0 0 3840 2160" width="100%" xml:space="preserve" xmlns="http://www.w3.org/2000/svg" xmlns:vectornator="http://vectornator.io" xmlns:xlink="http://www.w3.org/1999/xlink">
<defs/>
<g id="Molyan-Stars" vectornator:layerName="Molyan Stars">
<g opacity="1">
<clipPath id="ClipPath">
<path d="M735.559 144.713L3151.92 144.713L3151.92 144.713L3151.92 2126.33L3151.92 2126.33L735.559 2126.33L735.559 2126.33L735.559 144.713L735.559 144.713Z" fill-rule="evenodd"/>
</clipPath>
<g clip-path="url(#ClipPath)">
<path d="M1239.68 334.171L1959.59 308.483L1967.53 203.985L2209.94 319.338L2227.36 237.302L2244.18 201.287L2411.99 214.4L2438.59 321.912L2748.93 226.827L2743.28 469.45L2631.27 563.473L2214.87 565.359L1476.85 584.488L1207.51 518.048L1239.68 334.171Z" fill="white" fill-rule="evenodd" opacity="1" stroke="none"/>
<path d="M2690.65 505.532L2717.01 252.246L2638.14 244.036L2629.12 330.686L2582.96 238.293L2502.61 229.929L2478.11 296.253L2495.52 298.064L2476.24 483.215L2555.49 491.463L2567.24 378.521L2626.96 498.902L2690.65 505.532Z" fill="black" fill-rule="evenodd" opacity="1" stroke="white" stroke-linecap="square" stroke-linejoin="miter" stroke-width="60.9767"/>
<path d="M2014.8 239.298L2097.19 247.436L2116.41 301.637L2144.82 252.14L2228.6 260.415L2144.42 384.087L2133.85 491.159L2060.15 483.88L2070.72 376.808L2014.8 239.298Z" fill="black" fill-rule="evenodd" opacity="1" stroke="white" stroke-linecap="square" stroke-linejoin="miter" stroke-width="60.9767"/>
<path d="M2003.97 401.845L1951.22 408.211L1930.4 235.679L1852.01 245.139L1843.86 322.31L1861.07 320.232L1882.25 495.695L1995.44 482.035L2003.97 401.845Z" fill="black" fill-rule="evenodd" opacity="1" stroke="white" stroke-linecap="square" stroke-linejoin="miter" stroke-width="60.9767"/>
<path d="M1829.82 371.257C1829.82 332.656 1816.79 299.946 1790.72 273.127C1764.65 246.307 1732.32 232.897 1693.72 232.897C1652.11 232.897 1617.52 247.059 1589.95 275.383C1565.38 300.698 1553.1 329.273 1553.1 361.105C1553.1 402.463 1566.26 435.674 1592.58 460.739C1619.4 486.055 1653.36 498.713 1694.47 498.713C1735.08 498.713 1768.66 484.3 1795.23 455.475C1818.29 430.16 1829.82 402.087 1829.82 371.257ZM1743.35 365.993C1743.35 373.262 1742.09 380.029 1739.59 386.296C1737.08 392.562 1733.57 397.951 1729.06 402.463C1724.55 406.974 1719.22 410.546 1713.08 413.178C1706.94 415.81 1700.23 417.126 1692.97 417.126C1685.2 417.126 1677.99 415.873 1671.35 413.366C1664.7 410.86 1659 407.288 1654.24 402.651C1649.48 398.014 1645.72 392.499 1642.96 386.108C1640.2 379.716 1638.83 372.635 1638.83 364.865C1638.83 350.077 1644.09 337.92 1654.62 328.395C1665.64 318.871 1678.43 314.108 1692.97 314.108C1707.75 314.108 1719.79 319.121 1729.06 329.147C1738.58 339.424 1743.35 351.706 1743.35 365.993Z" fill="black" fill-rule="evenodd" opacity="1" stroke="white" stroke-linecap="square" stroke-linejoin="miter" stroke-width="60.9767"/>
<path d="M1546.03 515.154L1524.45 260.271L1446.2 266.897L1408.26 324.154L1357.51 274.407L1277.02 281.222L1266.1 360.586L1283.62 359.103L1298.61 536.104L1378.35 529.352L1366.68 391.477L1419.04 438.085L1459.86 379.459L1471.88 521.432L1546.03 515.154Z" fill="black" fill-rule="evenodd" opacity="1" stroke="white" stroke-linecap="square" stroke-linejoin="miter" stroke-width="60.9767"/>
<path d="M2607.06 387.227L2622.25 176.174L2504.34 168.528L2507.33 148.864L2328.42 163.066L2323.07 187.535L2308.51 164.813L2164.7 176.393L2159.35 202.611L2146.3 177.922L2020.25 187.972L2006.55 144.713L1779.7 159.788L1773.71 196.493C1749.52 171.368 1718.49 157.604 1681.04 156.074L1524.6 149.301L1512.41 195.619C1509.2 192.124 1505.56 189.065 1501.92 186.006C1479.02 167.872 1452.27 160.662 1422.52 164.376L1248.11 186.006L1232.05 342.875L1263.94 384.606L1283.63 557.423L1372.44 638.261L1525.25 619.472C1539.16 617.724 1552 613.791 1563.34 607.893L1764.29 616.632L1762.36 626.245L1914.52 616.194L1922.87 577.087L1945.35 575.557L1954.34 613.573L2067.12 606.145L2077.39 638.479L2228.69 626.463L2231.9 609.64L2237.46 625.59L2378.07 614.447L2377.63 621.22L2575.17 634.11L2664.19 553.272L2710.85 393.344L2607.06 387.227Z" fill="white" fill-rule="evenodd" opacity="0" stroke="none"/>
<path d="M2656.07 548.028L1221.15 548.028L1221.15 768.037L2656.07 768.037L2656.07 548.028Z" fill="white" fill-rule="evenodd" opacity="1" stroke="none"/>
<path d="M3048.55 810.644L3152.13 505.645L2885.91 434.42L2876.49 460.42C2873.71 460.201 2871.14 459.983 2868.78 459.765L2838.39 458.016C2761.14 453.428 2695.87 472.217 2644.08 513.729C2613.9 537.762 2591 567.475 2575.38 602.65C2538.15 576.214 2493.84 561.795 2443.12 559.392L2159.13 546.282L2132.81 644.162L2105.2 534.266L1784.62 534.266L1785.47 531.207L1718.28 534.266L1701.59 534.266L1701.37 534.922L1475.38 545.191L1471.74 567.694L1311.66 576.651L1347.62 443.159L1047.15 395.531L1040.51 424.807C1036.66 424.807 1033.45 425.026 1030.67 425.244L998.783 427.647C918.743 433.765 853.686 462.168 805.961 511.981C753.743 566.164 730.417 636.733 736.623 721.941C738.977 753.621 745.397 782.897 756.312 809.333L814.308 911.364L761.662 1197.14L867.595 1335.43L894.133 1348.32C966.254 1383.29 1038.59 1400.98 1109 1400.98C1119.48 1400.98 1129.97 1400.54 1140.46 1399.89C1220.71 1393.77 1286.62 1366.02 1336.92 1317.08L1337.13 1316.86C1359.6 1294.58 1377.36 1269.23 1389.78 1241.49L1395.77 1373.45L1877.29 1373.45L1898.69 1279.5L1964.81 1279.5L1977.87 1373.45L2605.13 1373.45C2644.08 1387.65 2683.89 1395.95 2723.04 1398.14C2730.75 1398.57 2738.66 1398.8 2746.15 1398.8C2813.36 1398.8 2872 1380.45 2920.58 1344.61L2920.79 1344.39C2944.11 1326.7 2963.8 1305.72 2978.78 1281.91L3062.89 1163.92C3066.53 1159.12 3070.17 1154.1 3073.37 1149.07L3078.09 1142.52L3077.65 1142.52C3101.84 1102.97 3115.75 1056.44 3118.75 1003.78C3123.03 925.784 3099.49 860.895 3048.55 810.644Z" fill="white" fill-rule="evenodd" opacity="1" stroke="none"/>
<path d="M1244.05 1146.88C1197.82 1191.89 1136.83 1217.23 1061.07 1222.92C981.889 1228.81 900.78 1211.78 817.745 1171.58L856.48 959.645L948.075 993.947C985.099 1005.96 1016.56 1010.99 1042.45 1009.02C1072.41 1006.84 1086.54 994.384 1084.83 972.099C1083.54 955.276 1058.5 940.2 1009.5 927.092C946.149 910.05 899.924 892.135 871.247 873.127C819.885 838.388 791.85 786.609 786.928 718.006C781.792 648.092 800.196 591.286 841.714 548.028C880.877 507.172 934.379 484.013 1002.01 478.988L1033.89 476.584C1037.96 476.366 1043.74 476.147 1051.44 476.366C1059.15 476.584 1068.78 476.803 1080.12 477.459L1085.47 453.862L1283.43 485.323L1225.64 700.964C1204.89 690.478 1105.16 660.982 1063 667.536C1031.32 672.343 1015.92 682.393 1017.63 704.679C1018.7 718.661 1043.31 732.207 1091.68 745.534C1154.38 763.231 1199.53 781.802 1226.93 800.809C1277.65 836.422 1305.47 888.202 1310.39 955.931C1315.95 1033.93 1293.91 1097.51 1244.05 1146.88Z" fill="black" fill-rule="evenodd" opacity="1" stroke="none"/>
<path d="M1670.78 775.028L1536.38 780.708L1555.22 1165.89L1393.21 1174.2L1373.53 786.608L1242.12 794.691L1275.3 630.175L1514.56 616.629L1517.98 594.782L1718.93 585.606L1670.78 775.028Z" fill="black" fill-rule="evenodd" opacity="1" stroke="none"/>
<path d="M2628.24 826.153C2631.02 765.415 2614.54 714.946 2579.23 674.964C2544.34 634.764 2498.12 613.571 2440.55 610.731L2197.01 599.588L2152.29 765.634L2189.52 767.382L2171.76 1170.92L2341.47 1178.79L2348.96 1009.89L2414.45 1182.06L2617.54 1191.45L2531.29 1002.47C2592.5 964.669 2624.81 905.898 2628.24 826.153Z" fill="black" fill-rule="evenodd" opacity="1" stroke="none"/>
<path d="M2390.71 765.635L2341.06 764.105L2337.63 876.186L2387.28 877.716C2417.67 878.589 2442.92 854.337 2443.78 823.532C2444.85 792.508 2421.09 766.727 2390.71 765.635Z" fill="white" fill-rule="evenodd" opacity="1" stroke="none"/>
<path d="M2981.79 1172.45C2932.56 1209.15 2871.79 1225.31 2799.23 1220.95C2723.69 1216.36 2648.99 1189.93 2575.38 1141.2L2638.3 945.663L2720.91 989.795C2754.51 1005.96 2783.61 1014.7 2808.22 1016.23C2836.89 1017.98 2851.67 1008.15 2852.95 986.737C2853.8 970.788 2831.97 953.309 2787.03 934.52C2729.25 910.269 2687.74 887.328 2662.91 865.698C2618.61 826.153 2598.49 773.499 2602.13 707.955C2605.99 641.1 2630.17 589.758 2674.9 554.145C2717.06 520.499 2770.34 505.424 2835.19 509.357L2865.58 511.105C2869.43 511.323 2874.99 511.978 2882.27 513.07C2889.54 514.163 2898.53 515.693 2909.23 517.659L2917.15 496.029L3086.64 541.473L3016.02 755.802C2997.62 743.35 2973.86 730.896 2944.54 718.224C2911.59 704.241 2886.55 696.594 2869.43 695.721C2839.04 693.973 2822.98 703.804 2821.92 724.997C2821.06 738.324 2842.89 754.492 2886.97 773.281C2944.11 798.188 2984.57 821.347 3008.32 842.976C3051.97 883.177 3071.88 935.612 3068.24 1000.5C3063.96 1074.78 3035.07 1132.03 2981.79 1172.45Z" fill="black" fill-rule="evenodd" opacity="1" stroke="none"/>
<path d="M2024.52 1173.54L2010.4 1091.17L1855.46 1091.17L1832.13 1173.54L1644.02 1173.54L1756.15 747.721L1704.58 747.284L1741.6 585.827L2066.04 585.827L2213.92 1173.54L2024.52 1173.54Z" fill="black" fill-rule="evenodd" opacity="1" stroke="none"/>
<path d="M1479.46 338.723C1501.93 320.589 1511.35 296.119 1507.92 265.532C1505.36 243.466 1496.37 226.424 1480.96 213.971C1465.55 201.736 1447.36 196.711 1426.81 199.333L1279.79 217.467L1270.37 309.228L1289.85 306.825L1314.46 523.121L1458.06 505.424C1481.17 502.584 1499.36 492.971 1513.06 476.367C1528.04 459.106 1534.03 438.351 1531.25 414.318C1529.11 394.873 1523.97 379.58 1515.84 368.219C1508.78 358.386 1496.58 348.555 1479.46 338.723Z" fill="black" fill-rule="evenodd" opacity="0" stroke="none"/>
<path d="M1772.41 499.309L1728.32 401.866C1760.42 381.329 1777.33 349.649 1779.04 306.827C1780.33 274.274 1771.55 246.964 1752.93 225.552C1734.53 204.141 1710.13 192.562 1679.53 191.251L1550.91 185.789L1527.58 275.366L1547.27 276.24L1538.71 493.41L1628.38 497.343L1632.02 406.454L1666.9 498.872L1771.34 503.46L1774.33 503.679L1772.41 499.309Z" fill="black" fill-rule="evenodd" opacity="0" stroke="none"/>
<path d="M2569.82 420.654L2585.23 209.165L2482.3 202.611L2469.46 292.625L2489.14 294.154L2473.52 508.921L2637.88 519.844L2665.27 425.898L2569.82 420.654Z" fill="black" fill-rule="evenodd" opacity="0" stroke="none"/>
<path d="M2352.82 196.93L2330.35 322.119L2288.61 201.955L2199.17 209.165L2176.48 334.354L2135.18 214.19L2021.54 223.366L2117.84 524.214L2235.33 514.819L2258.44 392.907L2299.74 509.794L2417.02 500.4L2466.24 187.754L2352.82 196.93Z" fill="black" fill-rule="evenodd" opacity="0" stroke="none"/>
<path d="M1979.78 496.251L1969.51 452.992L1887.12 458.453L1877.49 503.024L1777.33 509.578L1822.49 278.862L1795.1 280.392L1809.22 193.218L1981.93 181.857L2080.58 489.478L1979.78 496.251ZM1916.87 283.45L1899.1 376.087L1944.48 373.027L1916.87 283.45Z" fill="black" fill-rule="evenodd" opacity="0" stroke="none"/>
<path d="M1661.79 277.984L1636.54 277.11L1634.82 334.134L1660.08 335.007C1675.49 335.444 1688.54 323.21 1688.97 307.261C1689.4 291.748 1677.41 278.421 1661.79 277.984Z" fill="white" fill-rule="evenodd" opacity="0" stroke="none"/>
<path d="M1391.05 284.977L1372.43 286.943L1376.5 328.892L1395.12 326.925C1406.46 325.833 1414.59 315.346 1413.52 303.767C1412.45 292.406 1402.4 283.885 1391.05 284.977Z" fill="white" fill-rule="evenodd" opacity="0" stroke="none"/>
<path d="M1408.19 390.722L1384.43 393.125L1389.78 446.653L1413.54 444.25C1428.09 442.721 1438.58 429.613 1437.08 414.755C1435.58 400.117 1422.74 389.412 1408.19 390.722Z" fill="white" fill-rule="evenodd" opacity="0" stroke="none"/>
<path d="M1946.62 766.729L1900.82 938.455L1986.65 939.11L1946.62 766.729Z" fill="white" fill-rule="evenodd" opacity="1" stroke="none"/>
<path d="M1675.47 1764.97C1758.08 1799.05 1858.45 1822.86 1965.24 1810.19C2209.42 1781.14 2179.89 1546.92 2179.89 1546.92L2112.69 1555.01C2238.74 1450.79 2168.33 1288.9 2168.33 1288.9L1675.26 1491.43L1674.19 1490.99L1674.19 1765.62C1674.62 1765.41 1675.05 1765.18 1675.47 1764.97Z" fill="white" fill-rule="evenodd" opacity="1" stroke="none"/>
<path d="M2186.97 1764.97C2104.36 1799.05 2004 1822.86 1897.2 1810.19C1653.02 1781.14 1682.55 1546.92 1682.55 1546.92L1749.75 1555.01C1623.7 1450.79 1694.11 1288.9 1694.11 1288.9L2187.19 1491.43L2188.26 1490.99L2188.26 1765.62C2187.61 1765.41 2187.4 1765.18 2186.97 1764.97Z" fill="white" fill-rule="evenodd" opacity="1" stroke="none"/>
<path d="M2444.82 1533.16C2467.29 1494.27 2478.2 1449.04 2476.49 1399.23C2474.35 1340.24 2455.09 1295.24 2454.24 1293.26C2447.39 1277.32 2429.41 1269.89 2413.58 1276.44L1932.27 1473.95L1931.2 1473.51L1931.2 1508.47L1932.27 1508.91L2425.34 1306.38C2425.34 1306.38 2495.75 1468.27 2369.7 1572.48L2436.9 1564.4C2436.9 1564.4 2466.43 1798.83 2222.25 1827.67C2115.25 1840.34 2015.09 1816.52 1932.49 1782.44C1932.05 1782.66 1931.63 1782.66 1931.42 1782.89L1931.42 1817.63C1931.84 1817.4 1932.27 1817.4 1932.49 1817.18C2011.02 1847.99 2088.28 1863.51 2163.18 1863.51C2184.38 1863.51 2205.13 1862.19 2225.89 1859.79C2309.35 1849.96 2373.13 1816.75 2415.28 1761.47C2481.84 1674.51 2468.79 1564.84 2468.36 1560.25C2466.43 1546.92 2457.02 1536.21 2444.82 1533.16Z" fill="white" fill-rule="evenodd" opacity="1" stroke="none"/>
<path d="M1932.27 1782.66C2014.88 1816.75 2115.25 1840.57 2222.04 1827.89C2466.43 1798.83 2436.9 1564.4 2436.9 1564.4L2369.7 1572.49C2495.75 1468.27 2425.34 1306.38 2425.34 1306.38L1932.27 1508.91L1931.2 1508.47L1931.2 1783.1C1931.63 1782.89 1931.84 1782.66 1932.27 1782.66Z" fill="black" fill-rule="evenodd" opacity="1" stroke="none"/>
<path d="M1417.59 1533.16C1395.12 1494.27 1384.21 1449.04 1385.92 1399.23C1388.06 1340.24 1407.32 1295.24 1408.17 1293.26C1415.02 1277.32 1433 1269.89 1448.84 1276.44L1930.14 1473.95L1931.21 1473.51L1931.21 1508.47L1930.14 1508.91L1437.07 1306.38C1437.07 1306.38 1366.66 1468.27 1492.71 1572.48L1425.51 1564.4C1425.51 1564.4 1395.98 1798.83 1640.16 1827.67C1747.17 1840.34 1847.32 1816.52 1929.93 1782.44C1930.35 1782.66 1930.78 1782.66 1930.99 1782.89L1930.99 1817.63C1930.57 1817.4 1930.14 1817.4 1929.93 1817.18C1851.38 1847.99 1774.13 1863.51 1699.23 1863.51C1678.04 1863.51 1657.28 1862.19 1636.52 1859.79C1553.06 1849.96 1489.28 1816.75 1447.12 1761.47C1380.57 1674.51 1393.62 1564.84 1394.05 1560.25C1395.76 1546.92 1405.39 1536.21 1417.59 1533.16Z" fill="white" fill-rule="evenodd" opacity="1" stroke="none"/>
<path d="M1929.93 1782.66C1847.32 1816.75 1746.95 1840.57 1640.16 1827.89C1395.98 1798.83 1425.51 1564.62 1425.51 1564.62L1492.71 1572.7C1366.66 1468.49 1437.07 1306.6 1437.07 1306.6L1930.14 1509.13L1931.21 1508.69L1931.21 1783.32C1930.79 1782.89 1930.35 1782.66 1929.93 1782.66Z" fill="black" fill-rule="evenodd" opacity="1" stroke="none"/>
<path d="M2227.83 1707.95L2287.75 1498.86L2079.1 1447.52L1930.58 1290.43L1782.48 1447.95L1574.04 1499.95L1634.39 1708.82L1574.46 1917.91L1783.12 1969.25L1931.64 2126.33L2079.95 1968.81L2288.39 1917.03L2227.83 1707.95Z" fill="white" fill-rule="evenodd" opacity="1" stroke="none"/>
<path d="M2335.9 1783.76L2276.19 1577.07L2335.47 1370.17L2345.75 1333.69L2309.58 1324.95L2103.06 1274.04L1956.03 1118.48L1930.57 1091.39L1904.89 1118.48L1758.3 1274.48L1551.99 1325.82L1515.82 1335L1526.31 1371.49L1586.23 1577.95L1526.95 1784.85L1516.46 1821.34L1552.63 1830.29L1759.15 1880.98L1906.17 2036.54L1931.85 2063.63L1957.32 2036.54L2103.92 1880.54L2310.43 1829.2L2346.61 1820.24L2335.9 1783.76Z" fill="white" fill-rule="evenodd" opacity="1" stroke="none"/>
<path d="M2239.19 1577.07L2301.26 1360.12L2084.89 1306.81L1930.6 1143.61L1776.72 1307.25L1560.36 1361.22L1623.06 1577.95L1561 1794.9L1777.58 1848.21L1931.67 2011.41L2085.54 1847.77L2301.9 1794.03L2239.19 1577.07Z" fill="balck" fill-rule="evenodd" opacity="1" stroke="none"/>
<path d="M2301.25 1360.12L2084.89 1306.81L1930.6 1143.61L1931.23 1577.51L2301.25 1360.12Z" fill="black" fill-rule="evenodd" opacity="1" stroke="none"/>
<path d="M1931.23 1577.51L2301.89 1794.02L2239.18 1577.07L2301.25 1360.12L1931.23 1577.51Z" fill="balck" fill-rule="evenodd" opacity="1" stroke="none"/>
<path d="M1931.23 1577.51L1930.6 1143.61L1776.72 1307.25L1560.36 1361.22L1931.23 1577.51Z" fill="black" fill-rule="evenodd" opacity="1" stroke="none"/>
<path d="M1931.66 2011.41L2085.53 1847.77L2301.89 1794.03L1931.23 1577.51L1931.66 2011.41Z" fill="black" fill-rule="evenodd" opacity="1" stroke="none"/>
<path d="M1561 1794.9L1931.23 1577.51L1560.36 1361.22L1623.07 1577.95L1561 1794.9Z" fill="black" fill-rule="evenodd" opacity="1" stroke="none"/>
<path d="M1931.22 1577.51L1560.99 1794.9L1777.57 1848.21L1931.65 2011.41L1931.22 1577.51Z" fill="balck" fill-rule="evenodd" opacity="1" stroke="none"/>
<path d="M1931.2 1841.43C2075.29 1841.43 2192.08 1722.39 2192.08 1575.54C2192.08 1428.69 2075.29 1309.65 1931.2 1309.65C1787.13 1309.65 1670.33 1428.69 1670.33 1575.54C1670.33 1722.39 1787.13 1841.43 1931.2 1841.43Z" fill="white" fill-rule="evenodd" opacity="1" stroke="none"/>
<path d="M1931.21 1788.78C2046.8 1788.78 2140.51 1693.31 2140.51 1575.54C2140.51 1457.78 2046.8 1362.31 1931.21 1362.31C1815.62 1362.31 1721.91 1457.78 1721.91 1575.54C1721.91 1693.31 1815.62 1788.78 1931.21 1788.78Z" fill="white" fill-rule="evenodd" opacity="1" stroke="none"/>
<path d="M1670.35 1575.54C1672.49 1610.28 1680.41 1644.36 1694.53 1675.61C1701.38 1691.11 1709.73 1705.98 1719.57 1719.96C1729.2 1733.72 1740.12 1746.83 1752.1 1758.41C1800.04 1805.38 1865.31 1832.25 1931.22 1831.82C1997.14 1832.25 2062.63 1805.38 2110.35 1758.41C2122.33 1746.83 2133.25 1733.72 2142.88 1719.96C2152.51 1706.2 2160.86 1691.34 2167.92 1675.61C2182.04 1644.59 2189.96 1610.51 2192.1 1575.54C2194.24 1610.51 2188.67 1645.89 2176.48 1679.1C2170.27 1695.7 2162.57 1711.66 2153.16 1726.73C2143.94 1741.81 2132.82 1755.79 2120.83 1768.9L2111.42 1778.3C2108.2 1781.35 2105 1784.41 2101.57 1787.25C2098.15 1790.09 2094.73 1792.94 2091.3 1795.78C2087.66 1798.4 2084.24 1801.01 2080.6 1803.63C2066.04 1813.69 2050.64 1822.43 2034.38 1829.64C2001.84 1843.62 1966.54 1850.83 1931.22 1851.05C1895.91 1850.83 1860.6 1843.84 1828.07 1829.64C1795.76 1815.43 1766.01 1794.9 1741.61 1768.9C1729.42 1756.01 1718.5 1742.03 1709.3 1726.95C1700.1 1711.87 1692.18 1695.93 1685.97 1679.33C1673.77 1645.89 1668.21 1610.28 1670.35 1575.54Z" fill="black" fill-rule="evenodd" opacity="1" stroke="none"/>
<path d="M1931.23 1353.78C1811.6 1353.78 1714.44 1457.12 1714.44 1565.93C1714.44 1637.37 1756.6 1693.3 1819.53 1723.24L1819.53 1748.36C1819.53 1761.91 1830.22 1772.83 1843.49 1772.83L2018.98 1772.83C2032.25 1772.83 2042.94 1761.91 2042.94 1748.36L2042.94 1723.24C2105.86 1693.3 2148.02 1637.59 2148.02 1565.93C2148.02 1457.34 2050.86 1353.78 1931.23 1353.78ZM1947.71 1542.77L1975.54 1514.37C1981.31 1508.47 1990.95 1508.47 1996.72 1514.37C2002.5 1520.26 2002.5 1530.1 1996.72 1535.99L1968.89 1564.4C1965.9 1567.46 1962.05 1568.98 1958.2 1568.98C1954.35 1568.98 1950.49 1567.46 1947.5 1564.4C1941.72 1558.29 1941.72 1548.67 1947.71 1542.77ZM1867.67 1514.37C1873.45 1508.47 1883.08 1508.47 1888.86 1514.37L1916.69 1542.77C1922.46 1548.67 1922.46 1558.5 1916.69 1564.4C1913.68 1567.46 1909.83 1568.98 1905.98 1568.98C1902.13 1568.98 1898.27 1567.46 1895.28 1564.4L1867.46 1535.99C1861.69 1530.1 1861.69 1520.26 1867.67 1514.37ZM1835.36 1678.01C1800.48 1678.01 1772.23 1648.08 1772.23 1611.37C1772.23 1574.66 1800.48 1544.74 1835.36 1544.74C1870.24 1544.74 1898.49 1574.66 1898.49 1611.37C1898.49 1648.08 1870.24 1678.01 1835.36 1678.01ZM1898.49 1689.37C1898.49 1689.37 1932.31 1633.88 1932.31 1634.09L1963.76 1689.37C1963.76 1689.59 1898.49 1689.59 1898.49 1689.37ZM2031.82 1678.01C1996.93 1678.01 1968.68 1648.08 1968.68 1611.37C1968.68 1574.66 1996.93 1544.74 2031.82 1544.74C2066.7 1544.74 2094.95 1574.66 2094.95 1611.37C2094.95 1648.08 2066.7 1678.01 2031.82 1678.01Z" fill="black" fill-rule="evenodd" opacity="1" stroke="none"/>
<path d="M1904.25 1410.59C1889.28 1386.56 1847.97 1385.68 1812.01 1408.85C1776.06 1432 1759.16 1470.46 1774.14 1494.49C1789.11 1518.52 1830.42 1519.39 1866.38 1496.24C1902.33 1472.85 1919.23 1434.63 1904.25 1410.59Z" fill="white" fill-rule="evenodd" opacity="1" stroke="none"/>
<path d="M1546.73 514.666L1525.15 259.784L1446.9 266.41L1408.96 323.666L1358.21 273.919L1277.72 280.735L1266.8 360.098L1284.32 358.615L1299.3 535.617L1379.05 528.865L1367.37 390.99L1419.73 437.598L1460.56 378.971L1472.58 520.945L1546.73 514.666Z" fill="black" fill-rule="evenodd" opacity="1" stroke="none"/>
<path d="M1830.56 370.828C1830.56 332.227 1817.53 299.517 1791.46 272.698C1765.39 245.878 1733.06 232.468 1694.46 232.468C1652.85 232.468 1618.26 246.63 1590.69 274.954C1566.12 300.269 1553.84 328.844 1553.84 360.676C1553.84 402.034 1567 435.245 1593.32 460.31C1620.14 485.626 1654.1 498.284 1695.21 498.284C1735.81 498.284 1769.4 483.871 1795.97 455.046C1819.03 429.731 1830.56 401.658 1830.56 370.828ZM1744.09 365.564C1744.09 372.833 1742.83 379.6 1740.33 385.867C1737.82 392.133 1734.31 397.522 1729.8 402.034C1725.29 406.545 1719.96 410.117 1713.82 412.749C1707.68 415.381 1700.97 416.697 1693.71 416.697C1685.94 416.697 1678.73 415.444 1672.09 412.937C1665.44 410.43 1659.74 406.859 1654.98 402.222C1650.22 397.585 1646.46 392.07 1643.7 385.679C1640.94 379.287 1639.56 372.206 1639.56 364.436C1639.56 349.648 1644.83 337.491 1655.36 327.966C1666.38 318.442 1679.17 313.679 1693.71 313.679C1708.49 313.679 1720.52 318.692 1729.8 328.718C1739.32 338.995 1744.09 351.277 1744.09 365.564Z" fill="black" fill-rule="evenodd" opacity="1" stroke="none"/>
<path d="M2004.64 401.34L1951.89 407.706L1931.07 235.174L1852.68 244.634L1844.53 321.805L1861.74 319.727L1882.92 495.19L1996.11 481.53L2004.64 401.34Z" fill="black" fill-rule="evenodd" opacity="1" stroke="none"/>
<path d="M2014.16 238.834L2096.55 246.972L2115.76 301.173L2144.17 251.675L2227.95 259.95L2143.78 383.623L2133.2 490.694L2059.5 483.415L2070.08 376.344L2014.16 238.834Z" fill="black" fill-rule="evenodd" opacity="1" stroke="none"/>
<path d="M2442.67 500.458L2389.26 243.227L2263.94 234.236L2234.38 300.281L2252.07 301.55L2189.46 482.291L2270.18 488.082L2283.01 453.809L2354.51 458.939L2359.01 494.455L2442.67 500.458ZM2343.43 391.459L2303.99 388.63L2328.89 315.212L2343.43 391.459Z" fill="black" fill-rule="evenodd" opacity="1" stroke="none"/>
<path d="M2691.42 505.185L2717.78 251.899L2638.91 243.689L2629.89 330.34L2583.73 237.946L2503.38 229.582L2478.88 295.906L2496.29 297.717L2477.02 482.868L2556.26 491.116L2568.02 378.175L2627.73 498.555L2691.42 505.185Z" fill="black" fill-rule="evenodd" opacity="1" stroke="none"/>
</g>
</g>
</g>
</svg>
